<?xml version="1.0" standalone="no"?>
<!DOCTYPE svg PUBLIC "-//W3C//DTD SVG 20010904//EN"
 "http://www.w3.org/TR/2001/REC-SVG-20010904/DTD/svg10.dtd">
<svg version="1.0" xmlns="http://www.w3.org/2000/svg"
 width="200.000000pt" height="200.000000pt" viewBox="0 0 200.000000 200.000000"
 preserveAspectRatio="xMidYMid meet">
<metadata>
Created by potrace 1.14, written by Peter Selinger 2001-2017
</metadata>
<g transform="translate(0.000000,200.000000) scale(0.100000,-0.100000)"
fill="#000000" stroke="none">
<path d="M0 1000 l0 -1000 1000 0 1000 0 0 1000 0 1000 -1000 0 -1000 0 0
-1000z m290 121 c36 -18 60 -52 60 -83 0 -28 -53 -24 -65 4 -6 13 -22 27 -37
32 -23 8 -32 6 -54 -15 -21 -20 -25 -30 -21 -62 4 -26 2 -35 -6 -30 -7 4 -6
-1 2 -10 14 -18 26 -24 17 -8 -3 5 14 6 38 4 26 -3 46 -1 50 6 5 7 -1 11 -13
11 -14 0 -21 6 -21 20 0 18 7 20 55 20 55 0 55 0 55 -31 0 -21 -10 -40 -30
-61 -29 -29 -34 -30 -92 -26 -53 4 -64 8 -85 34 -51 64 -36 143 36 191 41 28
65 29 111 4z m158 -52 c3 -12 2 -12 -6 0 -6 8 -15 10 -22 6 -9 -5 -11 -4 -6 4
10 15 28 10 34 -10z m-55 4 c-20 -8 -15 -26 5 -18 13 5 14 3 5 -6 -6 -6 -16
-8 -22 -5 -17 11 -13 36 7 35 10 0 12 -3 5 -6z m1289 -17 c6 -8 8 -7 8 2 0 6
5 12 11 12 6 0 9 -7 5 -15 -3 -9 0 -15 8 -15 8 0 16 7 20 15 3 8 16 14 28 14
17 -1 18 -2 6 -6 -22 -5 -24 -23 -3 -23 8 0 15 -4 15 -10 0 -14 -23 -13 -38 2
-9 9 -12 9 -12 0 0 -8 -7 -9 -25 -2 -14 5 -25 6 -25 1 0 -5 -9 -7 -20 -4 -11
3 -20 10 -20 17 0 6 -4 5 -9 -3 -15 -23 -52 -23 -73 -1 -12 13 -32 20 -55 20
-44 0 -38 -11 8 -13 52 -3 47 -25 -5 -25 -26 1 -46 5 -46 9 0 4 -3 14 -6 23
-5 14 8 16 107 15 72 -1 117 -6 121 -13z m206 -11 c-2 -11 -7 -18 -13 -15 -5
3 -9 8 -7 13 1 4 -2 7 -8 7 -5 0 -10 -8 -11 -17 0 -12 -2 -13 -6 -5 -4 10 -8
10 -19 2 -17 -15 -34 -5 -34 20 0 16 7 18 50 17 45 -2 50 -4 48 -22z m-1446
-32 c17 -15 19 -15 38 2 20 18 21 18 42 -2 28 -29 32 -106 5 -111 -10 -2 -25
2 -33 9 -20 17 -58 17 -78 0 -45 -38 -73 27 -36 87 22 36 35 39 62 15z m688
-29 c0 -23 2 -25 15 -14 18 15 34 5 17 -12 -7 -7 -8 -17 -1 -30 11 -20 -1 -24
-19 -6 -9 9 -12 9 -12 0 0 -7 -4 -12 -10 -12 -5 0 -10 23 -10 50 0 28 5 50 10
50 6 0 10 -12 10 -26z m275 16 c3 -5 1 -10 -4 -10 -15 0 -14 -27 2 -34 10 -5
10 -7 0 -12 -7 -3 -13 -17 -13 -31 0 -30 -24 -26 -28 5 -4 28 -15 28 -27 0
-15 -33 -37 -36 -29 -4 4 16 2 26 -5 26 -6 0 -11 5 -11 10 0 6 7 10 15 10 8 0
15 7 15 15 0 8 -4 15 -10 15 -5 0 -10 5 -10 10 0 6 22 10 49 10 28 0 53 -4 56
-10z m35 -2 c0 -9 4 -8 10 2 9 13 11 13 21 0 8 -11 12 -12 16 -3 3 10 10 10
26 -2 25 -17 41 -20 32 -5 -7 11 13 14 60 11 44 -4 64 -40 23 -42 -17 -1 -19
-2 -5 -6 11 -3 17 -14 17 -32 0 -26 -2 -28 -43 -27 -35 1 -46 6 -55 24 -8 17
-7 24 6 31 13 7 9 11 -20 16 -20 4 -43 5 -50 2 -7 -3 -1 -6 15 -6 27 -1 36
-14 17 -26 -15 -9 -12 -25 6 -25 8 0 13 -4 10 -8 -3 -5 -24 -7 -48 -6 -24 2
-49 3 -55 3 -18 1 -16 26 2 41 8 7 15 16 15 21 0 5 -7 9 -15 9 -17 0 -18 2 -9
24 7 19 24 21 24 4z m276 3 c5 -5 18 -11 29 -13 18 -3 17 -6 -14 -38 l-33 -35
33 -6 c29 -4 26 -6 -24 -10 -31 -2 -57 0 -57 5 0 5 15 22 33 37 l32 28 -27 1
c-15 0 -30 5 -33 10 -3 6 3 10 14 10 12 0 21 5 21 10 0 12 13 13 26 1z m163
-7 c2 -2 -1 -16 -8 -30 -8 -19 -9 -30 -1 -38 18 -18 11 -22 -46 -24 -55 -2
-55 -2 -52 25 1 16 7 31 13 35 6 5 5 8 -2 8 -22 0 -14 28 10 33 22 4 78 -2 86
-9z m-1229 -4 c0 -6 -6 -10 -12 -9 -29 4 -38 -2 -38 -26 0 -16 6 -25 16 -25
14 0 14 3 4 15 -10 13 -9 15 9 15 16 0 21 -6 21 -26 0 -23 -3 -25 -32 -22 -39
4 -61 45 -38 72 14 18 70 22 70 6z m312 -17 l11 -28 10 28 c6 16 18 27 29 27
15 0 18 -8 18 -45 0 -33 -4 -45 -15 -45 -8 0 -16 8 -16 18 -1 16 -2 16 -6 0
-6 -25 -29 -22 -38 5 l-8 22 -4 -22 c-8 -40 -23 -25 -23 22 0 53 23 63 42 18z
m-244 -31 c3 -31 2 -33 -25 -30 -22 2 -28 8 -29 28 -1 35 5 42 29 38 17 -2 23
-11 25 -36z m110 25 c17 -12 15 -57 -3 -57 -9 0 -16 10 -16 28 l-2 27 -4 -27
c-6 -36 -33 -37 -33 -2 0 14 -4 23 -10 19 -5 -3 -10 -15 -10 -26 0 -10 -4 -19
-10 -19 -5 0 -10 15 -10 34 0 33 1 33 43 32 23 -1 48 -5 55 -9z m70 1 c18 -18
15 -28 -10 -29 -22 -1 -22 -1 2 -9 22 -6 23 -8 8 -15 -27 -11 -48 1 -48 28 0
37 24 49 48 25z m190 0 c7 -7 12 -22 12 -35 0 -19 -5 -23 -31 -23 -28 0 -30 2
-25 33 2 17 5 33 5 35 3 7 29 0 39 -10z m140 0 c18 -18 15 -28 -10 -29 l-23
-2 23 -4 c26 -5 20 -23 -8 -23 -25 0 -41 29 -29 52 11 21 30 23 47 6z m62 3
c0 -6 -4 -13 -10 -16 -5 -3 -10 -15 -10 -26 0 -10 -4 -19 -10 -19 -5 0 -10 16
-10 35 0 28 4 35 20 35 11 0 20 -4 20 -9z"/>
<path d="M183 1110 c-55 -22 -71 -129 -27 -177 l26 -28 -22 30 c-13 17 -17 31
-11 33 6 2 11 21 11 41 0 73 77 107 124 56 24 -25 56 -34 56 -14 0 6 -13 24
-29 40 -31 31 -81 38 -128 19z"/>
<path d="M250 990 c0 -9 39 -15 64 -11 5 1 13 -4 17 -11 6 -9 9 -6 9 10 0 20
-5 22 -45 22 -25 0 -45 -4 -45 -10z"/>
<path d="M304 928 l-19 -23 23 19 c21 18 27 26 19 26 -2 0 -12 -10 -23 -22z"/>
<path d="M1588 1053 c7 -3 16 -2 19 1 4 3 -2 6 -13 5 -11 0 -14 -3 -6 -6z"/>
<path d="M401 1006 c-9 -11 -6 -15 19 -18 28 -4 29 -4 13 14 -19 22 -18 21
-32 4z"/>
<path d="M485 1000 c-3 -5 3 -10 14 -10 15 0 22 -10 30 -42 l11 -43 -5 38 c-6
53 -33 84 -50 57z"/>
<path d="M376 964 c-18 -46 6 -72 35 -38 7 8 21 13 31 11 10 -3 16 -1 12 4 -8
14 -30 11 -44 -6 -20 -25 -33 -17 -26 15 6 32 2 40 -8 14z"/>
<path d="M400 970 c0 -5 7 -10 15 -10 8 0 15 5 15 10 0 6 -7 10 -15 10 -8 0
-15 -4 -15 -10z"/>
<path d="M471 947 c2 -1 15 -11 29 -22 l25 -20 -19 23 c-11 12 -24 22 -29 22
-6 0 -8 -1 -6 -3z"/>
<path d="M1340 975 c0 -8 5 -15 10 -15 6 0 10 7 10 15 0 8 -4 15 -10 15 -5 0
-10 -7 -10 -15z"/>
<path d="M1440 919 c0 -5 5 -7 10 -4 6 3 10 8 10 11 0 2 -4 4 -10 4 -5 0 -10
-5 -10 -11z"/>
</g>
</svg>
